# xmcd CD database file
#
# Track frame offsets:
#	150
#	4933
#	32104
#	54847
#	97048
#	131207
#	137698
#	165703
#	186548
#	204344
#	240523
#
# Disc length: 3278 seconds
#
# Revision: 4
# Processed by: cddbd v1.5.2PL0 Copyright (c) Steve Scherf et al.
# Submitted via: CDex 1.70beta2
#
DISCID=970ccc0b
DTITLE=Oscar Perez - Nuevo Comienzo
DYEAR=2005
DGENRE=Jazz
TTITLE0=My Prelude
TTITLE1=Baile de K
TTITLE2=El Padrino
TTITLE3=Borrowed 'n Blue
TTITLE4=Hilltop Arrival
TTITLE5=Sweet Duality
TTITLE6=Regalo
TTITLE7=Solamente Todo
TTITLE8=May
TTITLE9=Early Endeavor
TTITLE10=Nuevo Comienzo Motif
EXTD=YEAR: 2005
EXTT0=
EXTT1=
EXTT2=
EXTT3=
EXTT4=
EXTT5=
EXTT6=
EXTT7=
EXTT8=
EXTT9=
EXTT10=
PLAYORDER=
